<?xml version="1.0" encoding="UTF-8" standalone="no"?>
<!-- Created with Inkscape (http://www.inkscape.org/) -->

<svg
   width="210mm"
   height="297mm"
   viewBox="0 0 210 297"
   version="1.1"
   id="svg1319"
   inkscape:version="1.1.2 (0a00cf5339, 2022-02-04)"
   sodipodi:docname="rickastley.svg"
   xmlns:inkscape="http://www.inkscape.org/namespaces/inkscape"
   xmlns:sodipodi="http://sodipodi.sourceforge.net/DTD/sodipodi-0.dtd"
   xmlns="http://www.w3.org/2000/svg"
   xmlns:svg="http://www.w3.org/2000/svg">
  <sodipodi:namedview
     id="namedview1321"
     pagecolor="#ffffff"
     bordercolor="#666666"
     borderopacity="1.0"
     inkscape:pageshadow="2"
     inkscape:pageopacity="0.0"
     inkscape:pagecheckerboard="0"
     inkscape:document-units="mm"
     showgrid="false"
     inkscape:zoom="0.43206369"
     inkscape:cx="369.15854"
     inkscape:cy="408.50459"
     inkscape:window-width="1366"
     inkscape:window-height="708"
     inkscape:window-x="0"
     inkscape:window-y="0"
     inkscape:window-maximized="1"
     inkscape:current-layer="layer1" />
  <defs
     id="defs1316" />
  <g
     inkscape:label="Layer 1"
     inkscape:groupmode="layer"
     id="layer1">
    <path
       style="fill:none;fill-rule:nonzero;stroke:#2d2d2d;stroke-width:0.7148;stroke-opacity:1"
       d="m 67.03388,37.387503 c 0.52136,-6.21832 2.288233,-16.999171 10.722011,-18.459985 -0.792844,-2.627639 -0.290466,-10.0967784 0,-3.608161 0.495278,-0.927003 11.221862,-10.7004258 13.127985,-5.4313964 -4.797333,4.1297344 -3.34691,2.3696084 1.041165,0.3861144 5.780293,0.176955 7.967568,1.16415 12.591199,1.750508 12.35706,4.325735 15.98905,19.533712 12.47002,31.021575 -0.70507,2.788277 -4.94909,20.207711 -4.91994,10.815946 -1.99036,1.501446 -1.38943,6.454306 -2.40339,9.253119 -1.19051,4.177984 -1.208,10.265006 0.67666,1.751237 1.40302,-5.410026 6.81679,-7.819564 3.50266,-0.35745 -2.4485,5.38717 -8.261,7.61235 -9.9293,13.773856 -2.65255,4.941162 -2.80764,5.343431 0.0658,0.241794 2.45493,7.113445 -6.131366,20.515666 -12.698475,27.03346 -4.22258,4.53178 -11.375884,13.25469 -8.647961,2.5649 0.752314,-1.38862 -4.792638,2.25706 -7.792048,0.74462 -5.349926,-0.53484 -5.914246,1.21424 -0.227341,0.71482 3.638063,-0.0216 8.486986,-1.19189 6.50162,4.12417 -0.274084,5.47875 -0.0911,11.04588 -2.56302,16.09967 -1.75748,0.25611 -10.993868,1.40376 -6.177585,1.81724 2.142008,0.2118 9.395061,-1.41405 8.367194,0.15453 -3.615999,0.22612 -7.231989,0.45201 -10.847987,0.678 2.873677,4.69177 -2.566299,5.32614 -5.003607,3.69882 -0.799668,-4.52295 8.605395,-13.94516 1.284577,-14.56326 0.123464,-0.53695 3.999195,6.81791 -0.78526,2.66132 -2.711546,-0.57917 -0.351231,6.19698 -1.01751,8.47293 0.411001,18.49486 0.821997,36.98975 1.232996,55.48464 2.856943,0.17263 9.378684,-2.09804 5.262369,-4.43515 -4.777784,1.33516 -6.640763,-4.77596 -1.007732,-3.42764 2.813169,2.81705 1.919731,3.16945 2.178569,-2.45055 0.503983,-4.1196 0.402905,-7.63415 -4.719781,-6.12706 -4.920459,-1.97279 1.09812,-3.38247 4.004979,-0.71482 1.765979,-1.2747 2.53594,-8.58539 -2.217019,-6.10744 -11.170427,1.14364 9.407308,-5.62599 0.696758,-5.32936 -4.422042,2.09199 -6.953901,-4.74105 -1.497842,-1.92781 5.18831,2.97517 4.627727,-1.15848 4.087724,-5.26671 -0.356543,-6.4177 -0.713079,-12.8354 -1.069621,-19.2531 4.154823,0.0673 8.057084,0.32952 5.746506,5.38434 -0.926847,6.78544 -2.134161,13.55035 -2.887302,20.34849 5.003604,0 10.007208,0 15.010815,0 0.0948,5.04669 -5.768257,1.62453 -8.933424,2.03734 -3.732867,-0.65928 -7.625521,-1.4951 -6.077391,3.68105 4.288804,0 8.577609,0 12.866413,0 -5.792317,3.49656 -15.523672,-2.74489 -12.972791,7.20362 -0.547236,25.4732 -0.713298,50.94951 -0.608424,76.42806 1.768903,-1.87397 0.442526,-6.94811 1.048935,-10.02397 0.126894,-3.80667 0.253762,-7.61335 0.380667,-11.42005 4.655626,-0.91209 6.884067,0.4358 5.340103,5.29626 1.339995,4.88235 -2.312059,4.55445 -4.625303,5.42575 4.884528,-3.1212 4.070355,5.40022 5.119568,2.39979 2.346469,-22.89182 4.485289,-45.81521 6.407581,-68.73747 3.543887,-16.01014 7.087785,-32.02028 10.631672,-48.03042 -4.581186,3.54661 -20.57526,-7.26333 -10.722008,-0.7148 -1.805345,1.1896 -8.379402,0.84666 -1.515214,2.03088 2.416268,0.20019 9.942743,1.49416 7.811049,3.50172 -3.652519,1.11058 -7.539704,0.0619 -11.299442,0.18587 2.345062,1.36186 15.872523,3.09613 11.462895,6.69451 -13.674616,1.08607 -16.132245,-16.34336 -6.534879,-23.31148 7.183168,-6.58172 13.172727,-14.539441 17.230797,-23.411845 1.58949,1.871323 -0.22272,6.938404 0.0892,10.009971 0.80847,3.964564 1.00286,-5.084397 1.17505,-6.814477 -0.46246,-5.438991 4.02975,2.30868 6.0058,3.35972 3.29507,3.295067 6.59013,6.590141 9.8852,9.885181 -1.79354,-2.85679 -9.50101,-9.592461 -1.43334,-5.995624 11.05841,3.772234 23.06909,4.726004 33.64195,9.776744 10.10385,8.44615 -0.3205,-4.82296 -6.14903,-4.04537 -11.85504,-3.18902 -24.89192,-4.01334 -35.44964,-10.690991 -9.51674,-5.906524 -8.22891,-20.724579 1.41144,-25.1466 2.78702,-7.647985 -0.52128,-14.9272 4.2789,-22.661907 3.62229,-12.100587 2.08259,-29.006418 -11.04414,-34.617714 C 97.630188,8.8487056 86.657863,5.2218222 78.289961,10.93216 73.392784,19.431206 63.237739,26.180419 67.033902,37.387638 Z M 78.470691,11.654678 c -0.84395,0.843956 -0.735637,0.735648 0,0 z m 27.877229,11.436803 c -2.1931,4.677673 -19.031113,8.382686 -6.850031,8.157345 3.506001,-0.181818 8.204201,2.020533 9.528381,-2.525059 2.05364,-3.282914 -6.72156,1.919331 -7.68196,0.210996 1.49977,-2.004513 3.36751,-3.890748 5.00361,-5.843255 z m -32.880833,5.003622 c 4.859592,3.167717 -0.108146,4.469785 -3.574005,4.288804 1.824821,1.275565 6.76591,-1.386682 9.761105,-1.590032 4.267937,-1.195732 8.749261,0.198839 13.112519,0.160476 -1.863537,-1.913496 -6.909443,-0.978631 -9.968189,-1.822371 -3.110478,-0.345616 -6.220954,-0.691233 -9.33143,-1.036823 z m 35.740033,3.573985 c 1.64095,1.457167 8.58144,6.364721 3.90549,2.063246 -6.05463,-2.812105 5.26544,-3.113469 -2.40614,-2.277429 -0.49978,0.07132 -0.99957,0.142915 -1.49935,0.214237 z m -35.025233,2.144403 c 0.458765,3.115252 -0.929313,8.077324 0.714799,10.007218 -0.238254,-3.33573 -0.476534,-6.671461 -0.714799,-10.007218 z m 37.169633,2.85922 c 0.23826,3.573986 0.47654,7.147998 0.7148,10.722011 1.45864,-1.858572 -0.70787,-6.890994 -0.61074,-9.941543 l -0.078,-0.584817 z m -44.31764,1.429584 c 1.090751,3.113955 0.856681,7.866707 2.734377,10.007219 -0.594565,-3.081239 -1.876824,-6.728222 -2.734377,-10.007219 z m 6.433207,8.577608 c -4.045924,3.729409 -12.020718,5.972069 -9.369207,12.788904 4.339954,10.027994 -1.837775,-7.594196 5.734916,-7.337462 1.211431,-1.817129 2.42286,-3.634285 3.634291,-5.451442 z m -4.288804,10.007219 c 0.238254,3.574013 0.476534,7.147998 0.714799,10.722011 -4.211619,-4.941864 -3.26608,-1.355532 -0.601305,2.236851 2.669009,5.935786 3.012994,1.750535 1.734844,-2.330921 -0.616116,-3.542647 -1.232223,-7.085294 -1.848338,-10.627941 z m 2.859201,17.155217 c 0.843951,0.843956 0.735638,0.735621 0,0 z m 0,2.144402 c 2.396576,10.486485 -4.718722,18.063688 -9.312829,26.392939 -2.063246,4.42272 -6.033806,22.13341 1.756942,18.48605 6.801371,-3.97679 -7.283467,5.10442 -3.422171,-2.98149 -1.010693,-7.68208 5.165406,-22.535771 8.564328,-23.205121 -1.890257,5.809861 1.795535,13.525791 1.584247,4.030527 0.880298,-7.069407 1.182546,-14.183659 1.544283,-21.293294 3.614105,4.85109 10.73242,12.389606 17.155217,10.846825 C 82.206125,87.640996 77.239103,80.08592 72.287143,75.986741 Z m 27.162428,8.577609 c -2.47151,1.091342 -12.693088,5.355859 -4.241242,3.569096 1.652061,-0.553182 4.461789,-1.289262 4.241242,-3.569096 z m -28.59203,7.862819 c -0.84395,0.84393 -0.735637,0.73562 0,0 z M 28.434643,117.44517 c 8.216298,-3.48621 16.064393,-8.44523 24.140169,-12.49354 2.275811,-0.76977 10.885737,-6.909524 7.1382,-2.56676 -5.467111,7.63925 -13.238308,14.00089 -16.546828,22.95051 -0.707303,9.68246 6.491747,18.80998 11.716083,25.70543 -3.578527,-7.86281 -7.157062,-15.7256 -10.735591,-23.58842 3.072434,-6.86736 7.020952,-13.18655 11.855454,-18.95138 2.24765,-2.97529 4.495297,-5.95056 6.742946,-8.925844 -10.063537,2.941564 -19.114964,8.637174 -28.640885,12.956584 -2.145053,1.30399 -4.141826,2.90607 -5.669548,4.91342 z m 75.054077,-15.7256 c -2.85921,7.38627 -5.71841,14.77255 -8.577612,22.15881 3.596633,-1.08427 3.03187,-6.36856 4.592541,-9.31807 1.328361,-4.28024 2.656711,-8.56051 3.985071,-12.84074 z m -31.451236,2.85919 c 1.870848,1.83117 6.936571,0.67337 10.007317,1.38195 -0.150264,-0.13373 -6.679969,-0.90474 -9.226854,-1.27789 l -0.584801,-0.0781 z m -3.574004,0.71482 c -1.195875,2.62793 0.220235,6.94459 0,0 z m 54.32486,2.1444 c 2.19063,4.0251 5.63267,7.86457 7.04023,12.00587 -3.62923,13.12863 -7.09121,26.30243 -10.61424,39.45978 4.42005,-8.02891 5.29367,-19.52048 8.97869,-28.66215 5.41018,-8.42857 3.18095,-17.53901 -5.40468,-22.8035 z m -55.03966,5.00359 c -0.562761,2.77083 1.58277,3.145 0,0 z m 90.77968,0.7148 c 0.81875,9.88578 6.16364,19.3245 5.35062,29.06915 3.69661,5.08283 7.39319,10.16566 11.0898,15.2485 -7.08399,-7.07992 -9.12306,-17.04413 -10.36448,-26.48423 -3.56785,-5.48604 -2.56817,-12.43774 -6.07594,-17.83342 z m -10.00719,1.42961 c 0.84392,0.84395 0.73562,0.73562 0,0 z m -80.05769,1.42961 c -1.31409,5.195 0.397458,5.64679 0,0 z m 79.34287,0 c -1.21103,12.72652 -2.93006,25.37697 -5.60333,37.88442 0.43817,6.90974 0.87635,13.81948 1.31452,20.72923 1.22078,-6.60844 -2.12959,-16.56311 0.0997,-24.36401 1.89815,-11.31442 6.04469,-22.63902 4.18917,-34.24964 z m -60.043251,7.14799 c -0.84395,0.84396 -0.735637,0.73563 0,0 z m -51.46565,3.57402 c 0,8.57761 0,17.15521 0,25.73282 1.654379,-1.87429 0.01783,-6.94929 0.43631,-10.02567 -0.145428,-5.23572 -0.290874,-10.47143 -0.43631,-15.70715 z m -11.436808,0.71479 c -0.362931,2.02215 0.41483,10.79979 0.479982,4.79981 -0.159989,-1.59992 -0.319987,-3.19986 -0.479982,-4.79981 z m 42.888039,0 c 1.634328,4.93614 -4.755982,5.42853 -2.859202,0.15912 0.53705,-0.37436 2.040169,-0.0492 2.859202,-0.15912 z m 27.162428,9.2924 c -0.285806,5.21478 -4.965692,2.88486 -8.444349,2.61745 -2.670532,-1.24836 -9.848267,0.82464 -8.322903,-3.51563 0.217506,-4.09429 6.240789,3.3e-4 9.045551,-0.44471 2.573899,0.44763 5.147803,0.89526 7.721701,1.34289 z m -70.765266,-1.42958 c 1.191336,8.5776 2.382665,17.15521 3.574001,25.73282 1.398191,-1.84949 -0.931968,-6.85738 -0.934043,-9.89307 -0.879984,-5.27992 -1.759974,-10.55984 -2.639958,-15.83975 z m 46.46204,3.57398 c 1.885545,8.37642 -10.798072,-2.31668 -0.998625,0 h 0.589966 z m 22.158824,2.85922 c 0.686092,5.38074 -4.457006,2.88086 -7.759334,2.86954 -3.196017,-0.71682 -8.9408,0.873 -7.251481,-4.26497 1.797459,-1.52036 6.886817,0.75488 9.928724,0.6694 1.694036,0.24207 3.388063,0.48402 5.082091,0.72603 z m 67.191264,0 c -3.40384,7.28816 -5.37537,21.07309 -3.52849,25.8594 0.55558,-8.73544 1.14899,-17.3905 3.52849,-25.8594 z m -89.350088,2.8592 c 2.031959,4.17414 -7.060271,4.24684 -5.003604,0 1.667865,0 3.335739,0 5.003604,0 z m 7.862809,0 c 4.288804,1.90614 8.577608,3.81226 12.866413,5.71841 -4.765341,-0.47654 -9.530674,-0.95307 -14.296015,-1.42961 0.476536,-1.42961 0.953065,-2.85919 1.429602,-4.2888 z m -53.61005,5.71841 c 0,13.10467 0,26.20936 0,39.31403 1.868925,-0.63239 10.391499,-2.05963 7.416692,-2.64814 -3.588371,0.65246 -8.341749,2.74359 -6.82415,-2.90945 -0.420087,-11.24966 -0.571655,-22.49951 -0.592542,-33.75644 z m 45.032441,0.71479 c 1.766623,4.44061 -8.828482,1.60773 -3.823663,0 1.274555,0 2.549109,0 3.823663,0 z m 7.862809,0 c 4.288804,0.71479 8.577609,1.42961 12.866413,2.1444 0.671082,5.49343 -4.423952,2.63272 -7.69814,2.41011 -3.407205,-1.0985 -7.54463,0.74089 -5.168273,-4.55451 z m -24.303226,2.1444 c 0.714803,13.10467 1.429602,26.20937 2.144402,39.31403 1.607366,-1.87237 -0.156423,-6.94224 0.184844,-10.01551 C 55.40223,172.68 54.662683,162.92254 53.452665,153.18521 Z m 12.151613,0.95283 c 0.832736,0.23748 -0.917039,0.43026 0,0 z m -28.592026,1.19158 c 2.620939,11.67508 5.241868,23.35016 7.862805,35.02522 -4.819748,-2.26919 -6.11213,-0.72792 -2.171735,3.06103 2.347642,4.18923 6.188908,2.22121 2.68933,-1.8533 -0.558138,-3.282 3.10942,4.99668 0.722765,-1.77096 -3.034388,-11.48735 -6.06878,-22.97467 -9.103165,-34.46199 z m 138.671318,2.1444 c 7.79574,4.61721 -6.44179,15.6267 -4.42447,14.51796 3.1427,-2.93319 6.2854,-5.86638 9.4281,-8.79955 3.35159,2.93379 7.82491,5.2244 10.50707,8.54203 0.84063,6.67692 1.60354,13.36302 2.35934,20.04999 1.60678,-1.87235 -0.15858,-6.94213 0.18182,-10.01535 -0.45112,-3.79287 -0.0713,-8.15421 -1.35318,-11.58382 -5.25723,-4.67235 -10.80031,-8.8787 -16.69859,-12.71126 z m -66.47645,11.4368 c -3.54983,3.78352 0.9572,11.92417 0.8699,6.61978 -3.72394,1.0449 1.21058,-6.10677 -0.64337,-8.40876 -0.95368,-2.7993 -5.44024,-8.97215 0.20092,-5.47397 0.0342,3.98933 -1.10978,8.85433 2.67998,1.76056 7.46277,-5.27368 18.80523,-0.5932 20.64721,8.37577 2.52925,-2.07638 -6.96783,-14.56735 -14.99306,-10.99968 -7.15717,-0.53209 -19.570936,-1.3487 -8.76158,8.1263 z m -80.772477,-6.43321 c 0.84395,0.84396 0.735638,0.73565 0,0 z m 42.888042,3.57402 c -0.843953,0.84395 -0.735638,0.73562 0,0 z m 39.314035,1.42961 c 1.875,1.70644 6.95197,0.21099 10.02953,0.71479 6.25109,0.52641 2.27819,-2.53973 -1.75072,-1.15054 -2.75961,0.14535 -5.51921,0.29048 -8.27881,0.43575 z m -25.018023,2.85919 c 1.284461,5.07922 -5.301953,1.74535 -8.241315,2.30977 -5.562337,-0.19019 -0.940036,-4.85701 2.817295,-2.67138 1.808008,0.12049 3.616011,0.24098 5.42402,0.36161 z m 49.321233,1.42961 c 0.51571,1.84534 5.00425,0.33025 0,0 z m -24.30321,2.8592 c 5.24187,-0.47654 10.48375,-0.95308 15.72561,-1.42961 -5.16878,-1.11029 -10.97677,-1.18917 -15.72561,1.42961 z m 24.30321,-1.42961 c 2.62094,7.38628 5.24188,14.77256 7.86282,22.15884 -3.57401,0 -7.148,0 -10.72201,0 -0.40635,6.01769 11.20819,16.07997 4.51363,6.11185 -2.51801,-3.53819 -4.27889,-6.67809 1.61945,-5.78901 5.69416,-2.13276 2.97469,3.23788 2.4857,6.61932 -1.49936,6.53954 0.91693,1.81151 1.11587,-2.00533 0.19695,-5.19079 2.32533,-5.97987 3.05839,-0.41612 2.32003,6.1816 0.29758,-1.79774 -0.89953,-4.03226 -2.57404,-7.72463 -5.88913,-15.14595 -9.03432,-22.64729 z m 3.57402,0 c 1.71957,2.45392 6.37566,2.98236 9.19808,4.71314 7.0384,2.59149 11.57832,9.10126 17.4273,13.55808 4.37393,4.05285 -2.3058,-2.86454 -3.55875,-4.39611 -2.44701,-2.7189 -4.89402,-5.4378 -7.34103,-8.1567 4.52709,0.71479 9.05415,1.42961 13.58123,2.1444 -2.60953,-2.16434 -7.62793,-2.25495 -0.2607,-3.72889 9.57502,-2.83542 16.63435,5.38817 21.26969,12.51558 1.08958,-0.62602 -6.56829,-14.39012 -13.92553,-13.79042 -11.48521,-0.78574 -23.49135,4.44928 -34.32834,-2.05803 z m -67.191265,5.00362 c -7.389147,-1.03769 -4.848394,-7.49924 0,0 z m 13.581212,-3.33598 c 0.832736,0.23748 -0.917031,0.43026 0,0 z m 0,1.19158 c 1.735314,5.41488 -3.874177,2.94167 -7.061673,3.06959 -4.621772,1.46203 -3.820881,-6.15356 0.585301,-3.53222 2.15879,0.15426 4.317581,0.30842 6.476372,0.46263 z m 24.303223,3.57398 c 1.63187,2.44779 1.78511,2.67767 0,0 z m 1.4296,2.85922 c 1.83402,2.26579 7.65609,7.12301 2.91774,2.20292 -4.35201,-5.78393 22.56513,-2.73848 6.8094,-4.88894 -3.41121,0.0716 -6.65132,1.31855 -9.72714,2.68602 z m -25.732823,-1.42961 c -0.84395,0.84396 -0.735637,0.73562 0,0 z m -9.292408,0.71479 c 2.815028,1.08981 9.298592,-1.21758 9.292408,2.48473 -1.253595,2.35993 -6.964153,-0.0667 -10.004044,0.37471 0.230204,-0.94797 0.475121,-1.9069 0.711636,-2.85944 z m 41.458441,5.00363 c 1.60781,2.6711 5.96126,3.78765 8.60024,5.87494 3.13584,1.89569 7.92109,5.19336 3.02816,0.26476 -1.18266,-2.24798 -8.20009,-7.20211 -2.24534,-6.13976 4.66479,0 -4.98601,0 -6.79584,0 -0.86241,0 -1.72481,0 -2.58722,0 z m -45.747245,0.71479 c -4.901497,0.0827 -5.661481,3.04663 -4.551115,7.31193 -1.914065,5.81421 6.330089,0.93808 4.551115,6.26927 -5.131855,-2.52843 -4.58935,1.94192 -4.568464,5.76888 -0.06976,13.91032 -2.300058,27.637 -4.009145,41.40797 1.925515,-1.86217 1.023202,-6.90434 1.886666,-9.96083 2.132329,-8.56729 9.283396,9.39935 8.120542,9.37085 0,-11.71669 0,-23.43338 0,-35.15004 -3.753753,2.13449 -8.809417,-3.43418 -3.607655,-1.80384 4.561901,3.59993 2.296005,-3.45071 2.585334,-5.98395 -0.845131,-3.32663 1.193495,-8.27816 -1.879939,-10.34922 -6.172733,-4.79859 2.18756,3.16607 1.472661,-1.50293 0,-1.79271 0,-3.58538 0,-5.37809 z m 12.866412,0 c 1.734606,5.42437 -3.872605,2.92052 -7.058815,3.03101 -5.619792,-0.93543 0.11725,-4.60964 3.666127,-3.03101 1.130893,0 2.261795,0 3.392688,0 z m -59.328456,2.85919 c 0.238255,5.24188 0.476537,10.48376 0.714803,15.72564 1.966585,-1.81611 1.39687,-6.82475 0.564285,-9.75654 -0.426357,-1.98971 -0.852722,-3.97939 -1.279088,-5.9691 z m 10.007208,0.71482 c 0.843951,0.84393 0.735638,0.73562 0,0 z m -1.429602,0.71479 c -1.680811,2.24107 -6.37383,8.49845 -2.164902,2.88654 0.721635,-0.96218 1.443267,-1.92436 2.164902,-2.88654 z m 160.830153,0.71479 c 1.16283,9.8937 -8.31893,16.837 -17.38823,16.96035 -5.48672,0.52033 -19.68997,0.30056 -20.03105,-1.23471 2.3766,-1.34516 -5.92009,-0.71606 -7.87806,-1.06852 -1.96728,0.33511 -10.86584,-1.4423 -7.90631,0.75521 11.30483,2.70545 23.1888,3.08775 34.78154,2.70515 8.24342,-0.7082 19.77724,-5.26425 19.22565,-15.18034 l -0.2871,-1.44155 z m -118.656911,0.71482 c 2.690703,1.10809 9.224817,-1.32025 8.577608,2.8592 -2.598494,-0.85023 -9.782899,1.8801 -8.863144,-1.71709 l 0.143077,-0.57234 z m 36.454831,0 c -2.1444,9.53066 -4.2888,19.06134 -6.4332,28.59202 3.07776,-7.98555 8.17225,-19.00655 6.4332,-28.59202 z m -74.339269,0.71479 c -3.164551,1.97032 -7.720668,3.08062 -10.007208,5.59358 3.282593,0.0465 9.274332,-1.62507 10.007208,-5.59358 z m 13.581212,2.14441 c 2.24045,1.32143 11.855892,-2.91963 11.436813,4.2888 5.001502,-7.41713 -8.23123,-5.71282 -11.436813,-4.2888 z m -7.148006,4.2888 c 4.060775,-2.03039 7.566358,-3.78317 1.496907,-0.74845 -0.498965,0.24936 -0.997939,0.49896 -1.496907,0.74845 z m -5.718406,-2.1444 c -2.859202,5.95667 -5.718404,11.91334 -8.577605,17.87001 -2.56169,-1.00465 -1.724094,-6.86247 -4.288802,-7.86279 1.667865,3.33573 3.335736,6.67146 5.003601,10.00719 2.620939,-6.67146 5.24187,-13.34295 7.862806,-20.01441 z m 27.877227,0.71479 c 0.843953,0.84396 0.735637,0.73565 0,0 z m 17.155217,3.57401 c -2.603233,-1.06373 -9.767386,1.15989 -8.863142,-2.43188 0.394457,-2.24457 8.692784,-0.37639 8.863142,2.43188 z m -37.884436,-1.42961 c 1.867301,1.87619 6.923416,0.84034 9.988337,1.62283 15.656111,1.78912 -6.395048,-5.06681 -9.988337,-1.62283 z m -2.859205,0.71482 c -3.054692,3.53276 1.307193,23.91691 0.221613,11.74646 -0.590625,-3.89312 -0.181413,-7.82794 -0.221613,-11.74646 z m 28.592031,2.1444 c 2.524067,6.4367 -7.641464,-2.78792 -1.961028,-0.32684 0.653679,0.10888 1.307349,0.21775 1.961028,0.32684 z m -22.158824,2.14441 c 3.84969,2.16939 11.812374,-1.0633 15.725617,2.85919 -2.836216,-6.36172 -10.718644,-1.92571 -15.725617,-2.85919 z m 25.732825,-2.14441 c 2.422069,0.483 10.94119,1.11698 6.643651,3.59109 -2.512215,0.10617 -7.034403,0.13346 -6.643651,-3.59109 z m -29.544855,2.38242 0.476056,0.23882 z m 13.104441,5.48037 c 1.614906,0.99838 7.323562,-3.33346 0,0 z m 5.003604,-1.42958 c -0.0479,5.60195 -8.359672,7.59733 -1.771269,8.26738 0.664201,3.31996 2.485604,-7.0482 1.771269,-8.26738 z m 19.299619,0.71479 c -2.773056,-0.18209 -9.326305,4.47724 -8.577608,-0.21559 1.559087,-1.0165 6.185885,0.33946 8.577608,0.21559 z m 67.906075,-0.71479 c 0.0243,12.7148 0.4868,25.65159 4.2888,37.88442 1.42551,-1.85384 -0.83066,-6.87349 -0.78787,-9.91631 -1.58279,-9.271 -2.53886,-18.61687 -3.50093,-27.96811 z m -102.931309,2.85919 c 1.867595,1.70639 6.937005,0.211 10.007208,0.7148 -3.335738,-0.23829 -6.671469,-0.47654 -10.007208,-0.7148 z m -7.862807,1.42961 c 0.114872,2.32984 -1.414263,9.50548 0,8.70243 0,-2.90083 0,-5.80163 0,-8.70243 z m 32.16603,0.7148 c 1.87643,4.7086 -9.153086,-1.749 -2.053744,0 0.68458,0 1.369165,0 2.053744,0 z m 2.859202,0 c 2.493734,0.30347 10.292074,1.54702 5.25912,3.4566 -2.627209,-0.89207 -7.879221,1.14691 -5.25912,-3.4566 z m -25.018023,3.57401 c 0.168284,1.58141 10.291364,-2.41905 6.121438,-1.11301 -2.040476,0.37101 -4.080961,0.742 -6.121438,1.11301 z m -6.433206,0.71479 c 1.964243,3.33252 5.54057,6.73508 1.307857,1.56942 -0.435951,-0.52314 -0.871907,-1.04628 -1.307857,-1.56942 z m -11.436809,0.71479 c 0.917045,2.55578 8.599937,3.3112 2.29225,0.98239 -0.76408,-0.32746 -1.528165,-0.65493 -2.29225,-0.98239 z m 40.028836,0 c 1.920963,7.46884 -11.564704,-2.06535 0,0 z m 2.859202,0 c 3.168183,-0.78241 9.886144,2.20071 4.663291,3.57401 -3.396593,-0.2851 -6.94008,1.48586 -4.663291,-3.57401 z m -14.296012,0.71482 c -3.574004,1.19133 -7.148009,2.38266 -10.722011,3.57399 1.586928,1.90325 10.151177,0.18803 10.722011,-3.57399 z m 11.43681,5.0036 c -0.238254,3.57398 -0.476536,7.14799 -0.714799,10.72201 -7.5838,-0.54224 -8.364284,-16.40212 0.714799,-10.72201 z M 37.727051,225.3801 c 3.085537,7.83177 15.170223,2.43098 12.151612,12.20808 0,3.55518 0,7.11034 0,10.66552 3.144552,-0.45898 0.326914,-6.63688 1.036624,-9.43137 -1.399593,-6.0871 0.533649,-9.09437 5.589621,-12.28911 -0.450839,-0.80105 -10.608208,7.1808 -15.18572,1.20849 -1.250041,-0.70342 -2.440435,-1.50812 -3.592137,-2.36161 z m 30.498401,0.95283 0.476059,0.23882 z m 34.548458,4.76555 c -0.44135,5.31658 1.23106,6.03418 0.0473,0.33127 z m -0.7148,5.71842 c -0.47653,3.81226 -0.95306,7.62453 -1.4296,11.4368 1.8234,-1.87135 0.64458,-6.93843 1.34043,-10.01 0.0297,-0.47559 0.0595,-0.95121 0.0892,-1.4268 z m -22.873619,6.4332 c -0.441354,5.31658 1.231058,6.03416 0.04733,0.33125 z"
       id="path2758" />
  </g>
</svg>
